<svg width="512" height="512" viewBox="0 0 66.1 66.1" fill="none" xmlns="http://www.w3.org/2000/svg">
<path d="M10.9966 24.119C9.43867 24.119 8.17407 25.3836 8.17407 26.9415V39.1914C8.17407 40.7454 9.43867 42.0139 10.9966 42.0139H38.4939V40.0484H10.9966C10.5242 40.0484 10.1395 39.6637 10.1395 39.1914V26.9377C10.1395 26.4654 10.5242 26.0807 10.9966 26.0807H55.0975C55.5698 26.0807 55.9583 26.4654 55.9583 26.9377V39.1876C55.9583 39.6599 55.5698 40.0446 55.0975 40.0446H43.5295V42.01H55.0975C56.6554 42.01 57.92 40.7454 57.92 39.1876V26.9377C57.92 25.3836 56.6554 24.1152 55.0975 24.1152H10.9966V24.119Z" fill="url(#mark_paint5)"/>
<path d="M39.1682 8.18945H26.9222C25.3681 8.18945 24.1035 9.45405 24.1035 11.0119V22.5876H26.069V11.0119C26.069 10.5396 26.4537 10.1549 26.9222 10.1549H39.172C39.6443 10.1549 40.0291 10.5396 40.0291 11.0119V55.1129C40.0291 55.5852 39.6443 55.9699 39.172 55.9699H26.9222C26.4499 55.9699 26.069 55.5852 26.069 55.1129V27.6498H24.1035V55.1129C24.1035 56.667 25.3681 57.9354 26.9222 57.9354H39.172C40.7299 57.9354 41.9945 56.6708 41.9945 55.1129V11.0119C41.9907 9.45786 40.7261 8.18945 39.1682 8.18945Z" fill="#1A7F84"/>
<path d="M46.2188 3.20987C47.3844 4.25354 48.3824 5.42291 49.1899 6.62275C49.308 6.79416 49.4527 6.9389 49.6279 7.05317C58.2058 12.5458 63.9118 22.1445 63.9118 33.0612C63.9118 50.0838 50.0698 63.9296 33.051 63.9448C24.8426 63.9372 18.1653 57.26 18.1653 49.0477C18.1653 47.1165 18.5462 45.2768 19.2204 43.5817H16.8741C16.2875 45.3034 15.9485 47.1356 15.9485 49.0477C15.9485 53.3481 17.7197 57.1381 20.1917 60.2767C21.1097 61.4385 23.3913 63.3354 26.4881 64.5847C29.1201 65.6474 32.7273 66.4664 37.0543 65.8722C53.3912 63.8763 66.0905 49.9276 66.0905 33.0612C66.0905 19.9086 58.3696 8.53489 47.2244 3.21368C46.5578 2.89372 45.8836 2.60042 45.1904 2.32617C45.5827 2.63851 45.8951 2.92038 46.2188 3.20987Z" fill="url(#mark_paint6)"/>
<path d="M50.142 17.0759C50.142 13.3011 48.9041 9.81967 46.8168 6.99337C46.7939 6.95909 46.7672 6.92481 46.7406 6.89434C46.4092 6.4563 46.0626 6.02969 45.6969 5.62593C45.6779 5.60689 45.6626 5.58784 45.6436 5.5688C45.2551 5.146 44.8475 4.74224 44.4209 4.35753L44.4285 4.36134C41.945 2.12925 38.2731 0.163788 33.0052 0C14.8019 0.0304722 0 14.8514 0 33.0624C0 45.8607 7.30952 56.9792 17.971 62.4719C18.6414 62.8185 20.3059 63.5879 19.167 62.609C17.9786 61.5805 16.9159 60.2893 16.0474 58.9942C15.9065 58.7847 15.7313 58.6095 15.5256 58.4648C7.47331 52.8845 2.17876 43.5829 2.17876 33.0624C2.17876 16.0398 16.0208 2.194 33.0395 2.17876C41.248 2.18638 47.9252 8.86361 47.9252 17.0759C47.9252 18.9728 47.5519 20.7782 46.9006 22.4504C46.8891 22.4809 46.8777 22.5075 46.8663 22.538H49.2126C49.7992 20.8201 50.142 18.988 50.142 17.0759Z" fill="#1A7F84"/>
<defs>
<linearGradient id="mark_paint5" x1="113.576" y1="21.6353" x2="63.9174" y2="77.9836" gradientUnits="userSpaceOnUse">
<stop stop-color="#C99A6C"/>
<stop offset="0.2022" stop-color="#EFD7B9"/>
<stop offset="0.4438" stop-color="#DBBA95"/>
<stop offset="0.691" stop-color="#C09362"/>
<stop offset="0.8539" stop-color="#EFDBC0"/>
<stop offset="1" stop-color="#B98C5A"/>
</linearGradient>
<linearGradient id="mark_paint6" x1="122.19" y1="-6.50601" x2="18.3924" y2="26.8277" gradientUnits="userSpaceOnUse">
<stop stop-color="#C99A6C"/>
<stop offset="0.2022" stop-color="#EFD7B9"/>
<stop offset="0.4438" stop-color="#DBBA95"/>
<stop offset="0.691" stop-color="#C09362"/>
<stop offset="0.8539" stop-color="#EFDBC0"/>
<stop offset="1" stop-color="#B98C5A"/>
</linearGradient>
</defs>
</svg>
